# xmcd
#
# Track frame offsets:
#	183
#	13738
#	27000
#	38563
#	50358
#	61278
#	74208
#	84443
#	97783
#	110240
#	125950
#	139533
#	150058
#	163200
#	176063
#	193845
#
# Disc length: 3017
#
# Revision: 1
# Processed by: cddbd v1.5.1PL0 Copyright (c) Steve Scherf et al.
# Submitted via: CDex 1.40Release
# Normalized: r0:DSETVAR1,TDELIM( - )
#
DISCID=d80bc710
DTITLE=Various Artist - Country Classics Volume 2
DYEAR=1988
DGENRE=Country
TTITLE0=Sommerset - Almost Persuaded
TTITLE1=Tammy Wynette - Apartment No. 9
TTITLE2=Charlie Rich - The Most Beautiful Girl
TTITLE3=Linda Ronstadt - Love Me Tender
TTITLE4=Sandy Posey - I Take It Back
TTITLE5=Marty Robbins - Devil Woman
TTITLE6=Frankie Laine - I Believe
TTITLE7=Johnny Cash - Chicken In Black
TTITLE8=Nancy Sinatra and Lee Hazlewood - Jackson
TTITLE9=Billie Jo Spears - Blanket On The Ground
TTITLE10=Jimmy Dean - Big Bad John
TTITLE11=Emmylou Harris - Mr. Sandman
TTITLE12=Major Dundee Band - The Longer The Distance
TTITLE13=Lynn Anderson - Rose Garden
TTITLE14=Billy Swan - I Can Help
TTITLE15=Stan Ridgway - Camouflage
EXTD=YEAR: 1988 ID3G: 2
EXTT0=
EXTT1=
EXTT2=
EXTT3=
EXTT4=
EXTT5=
EXTT6=
EXTT7=
EXTT8=
EXTT9=
EXTT10=
EXTT11=
EXTT12=
EXTT13=
EXTT14=
EXTT15=
PLAYORDER=
